<?xml version="1.0" standalone="no"?>
<!DOCTYPE svg PUBLIC "-//W3C//DTD SVG 20010904//EN"
 "http://www.w3.org/TR/2001/REC-SVG-20010904/DTD/svg10.dtd">
<svg version="1.0" xmlns="http://www.w3.org/2000/svg"
 width="600.000000pt" height="200.000000pt" viewBox="0 0 600.000000 200.000000"
 preserveAspectRatio="xMidYMid meet">

<g transform="translate(0.000000,200.000000) scale(0.100000,-0.100000)"
fill="#000000" stroke="none">
<path d="M3077 1644 c-4 -4 -7 -106 -7 -226 0 -212 1 -218 20 -218 20 0 20 5
18 222 -3 209 -8 245 -31 222z"/>
<path d="M1740 1420 c0 -213 1 -220 20 -220 19 0 20 7 20 220 0 213 -1 220
-20 220 -19 0 -20 -7 -20 -220z"/>
<path d="M1463 1618 c-10 -12 -193 -405 -193 -414 0 -2 9 -4 19 -4 14 0 27 18
47 65 l28 65 117 0 117 0 28 -65 c20 -46 34 -65 47 -65 24 0 25 -3 -83 231
-49 107 -96 195 -103 197 -8 2 -19 -3 -24 -10z m24 -266 c-55 -1 -101 -1 -104
1 -2 3 8 30 22 61 14 31 37 82 51 113 l25 56 53 -114 52 -114 -99 -3z"/>
<path d="M2687 1624 c-4 -4 -7 -101 -7 -216 0 -201 1 -208 20 -208 19 0 20 7
20 105 l0 105 53 0 52 0 83 -105 c56 -72 89 -105 103 -105 25 0 25 1 -68 117
-40 51 -73 96 -73 101 0 5 32 51 70 102 39 51 70 98 70 102 0 29 -44 -9 -109
-95 l-74 -97 -53 0 -53 0 -3 97 c-3 89 -12 116 -31 97z"/>
<path d="M1919 1477 c-92 -61 -91 -208 1 -261 36 -21 120 -28 173 -13 53 15
26 25 -53 20 l-79 -6 -36 36 c-19 19 -35 44 -35 56 0 20 5 21 109 21 60 0 116
3 125 6 37 14 6 112 -46 144 -46 28 -115 27 -159 -3z m124 -8 c33 -17 57 -51
57 -81 l0 -28 -105 0 c-116 0 -120 3 -90 60 26 51 90 73 138 49z"/>
<path d="M2176 1491 c-3 -5 13 -30 36 -57 23 -27 48 -57 56 -66 13 -16 8 -25
-47 -90 -49 -58 -58 -74 -45 -77 11 -2 37 19 74 59 l56 63 53 -62 c31 -36 61
-61 73 -61 22 0 24 -4 -66 104 l-39 46 43 53 c24 28 50 59 57 69 11 12 11 18
3 23 -7 5 -35 -17 -70 -55 l-57 -62 -44 52 c-47 55 -74 76 -83 61z"/>
<path d="M3222 1492 c-29 -9 -29 -28 1 -25 12 2 46 4 75 5 62 3 89 -18 98 -74
l6 -35 -47 7 c-90 14 -168 -16 -180 -68 -9 -43 10 -81 50 -97 46 -20 81 -18
132 4 36 17 43 17 54 5 13 -15 79 -20 79 -5 0 5 -10 11 -22 13 -22 3 -23 9
-28 103 -6 110 -16 137 -60 160 -29 15 -115 19 -158 7z m147 -148 c25 -5 31
-11 31 -33 -1 -72 -119 -122 -170 -71 -22 22 -25 42 -9 71 18 34 76 47 148 33z"/>
<path d="M3548 1484 c-35 -18 -46 -59 -27 -93 10 -19 35 -33 86 -51 39 -14 78
-31 87 -39 23 -20 20 -48 -9 -67 -25 -16 -82 -16 -149 1 -22 6 -28 5 -24 -6 7
-21 106 -43 152 -35 43 8 86 45 86 75 0 32 -41 68 -100 86 -75 23 -100 41
-100 69 0 46 53 62 143 42 46 -10 51 7 6 23 -44 15 -119 13 -151 -5z"/>
<path d="M3828 1484 c-35 -18 -46 -59 -27 -93 10 -19 35 -33 86 -51 39 -14 78
-31 87 -39 23 -20 20 -48 -9 -67 -25 -16 -82 -16 -149 1 -22 6 -28 5 -24 -6 7
-21 106 -43 152 -35 43 8 86 45 86 75 0 32 -41 68 -100 86 -75 23 -100 41
-100 69 0 46 53 62 143 42 46 -10 51 7 6 23 -44 15 -119 13 -151 -5z"/>
<path d="M4142 1480 c-97 -59 -97 -215 0 -266 54 -29 206 -21 195 9 -2 7 -13
10 -23 7 -10 -3 -47 -5 -82 -5 -59 0 -66 2 -93 33 -16 18 -29 41 -29 52 0 18
9 20 123 22 l122 3 3 35 c3 41 -29 98 -68 117 -38 19 -110 16 -148 -7z m115
-10 c31 -11 63 -55 63 -89 0 -20 -5 -21 -105 -21 -88 0 -105 2 -105 15 0 31
29 72 62 88 39 20 46 20 85 7z"/>
<path d="M4437 1493 c-4 -3 -7 -71 -7 -150 0 -136 1 -143 20 -143 19 0 20 7
20 108 0 100 2 110 23 130 51 48 112 50 147 5 17 -22 20 -41 20 -134 0 -102 1
-109 20 -109 19 0 20 7 20 105 0 119 -12 155 -60 180 -37 19 -93 19 -131 0
-27 -14 -31 -14 -45 0 -18 17 -18 17 -27 8z"/>
</g>
</svg>
